# Blender v2.59 (sub 0) OBJ File: ''
# www.blender.org
mtllib arm2.mtl
v -0.043301 -1.475000 0.100000
v -0.249130 -0.020833 0.100000
v -0.050000 -1.500000 0.100000
v -0.124565 -1.510417 0.100000
v -0.043301 -1.525000 0.100000
v 0.125000 0.000000 0.100000
v 0.000000 -1.450000 0.100000
v 0.025000 -1.456699 0.100000
v -0.112268 -1.554963 0.100000
v -0.084625 -1.591998 0.100000
v -0.025000 -1.543301 0.100000
v -0.045416 -1.616457 0.100000
v 0.000000 -1.550000 0.100000
v 0.000000 -1.625000 0.100000
v 0.025000 -1.543301 0.100000
v -0.025000 -1.456699 0.100000
v 0.116559 -0.045155 0.100000
v 0.092376 -0.084212 0.100000
v 0.045416 -1.616457 0.100000
v 0.084625 -1.591998 0.100000
v 0.043301 -1.525000 0.100000
v 0.112268 -1.554963 0.100000
v 0.050000 -1.500000 0.100000
v 0.124565 -1.510417 0.100000
v 0.043301 -1.475000 0.100000
v 0.249130 -0.020833 0.100000
v 0.055717 -0.111895 0.100000
v 0.011534 -0.124467 0.100000
v -0.034208 -0.120228 0.100000
v -0.075329 -0.099752 0.100000
v -0.106277 -0.065804 0.100000
v 0.011534 0.124467 0.100000
v -0.031726 0.247979 0.100000
v -0.034208 0.120228 0.100000
v -0.093135 0.232004 0.100000
v -0.075329 0.099752 0.100000
v -0.148544 0.201084 0.100000
v -0.106277 0.065804 0.100000
v -0.122872 -0.022969 0.100000
v -0.125000 0.000000 0.100000
v -0.246351 0.042558 0.100000
v -0.122872 0.022969 0.100000
v -0.227702 0.103208 0.100000
v -0.194384 0.157210 0.100000
v 0.092376 0.084212 0.100000
v 0.148544 0.201084 0.100000
v 0.055717 0.111895 0.100000
v 0.093135 0.232004 0.100000
v 0.031726 0.247979 0.100000
v 0.246351 0.042558 0.100000
v 0.116559 0.045155 0.100000
v 0.227702 0.103208 0.100000
v 0.194384 0.157210 0.100000
v 0.011534 -0.124467 0.000000
v 0.055717 -0.111895 0.000000
v 0.124565 -1.510417 0.000000
v 0.092376 -0.084212 0.000000
v 0.249130 -0.020833 0.000000
v -0.122872 -0.022969 0.000000
v -0.106277 -0.065804 0.000000
v 0.043301 -1.475000 0.000000
v -0.075329 -0.099752 0.000000
v -0.034208 -0.120228 0.000000
v 0.116559 -0.045155 0.000000
v 0.125000 0.000000 0.000000
v 0.246351 0.042558 0.000000
v 0.116559 0.045155 0.000000
v 0.050000 -1.500000 0.000000
v 0.112268 -1.554963 0.000000
v 0.043301 -1.525000 0.000000
v 0.084625 -1.591998 0.000000
v 0.025000 -1.543301 0.000000
v 0.045416 -1.616457 0.000000
v 0.000000 -1.550000 0.000000
v 0.000000 -1.625000 0.000000
v -0.025000 -1.543301 0.000000
v 0.055717 0.111895 0.000000
v 0.148544 0.201084 0.000000
v 0.092376 0.084212 0.000000
v 0.194384 0.157210 0.000000
v 0.227702 0.103208 0.000000
v -0.034208 0.120228 0.000000
v -0.031726 0.247979 0.000000
v 0.011534 0.124467 0.000000
v 0.031726 0.247979 0.000000
v 0.093135 0.232004 0.000000
v -0.122872 0.022969 0.000000
v -0.227702 0.103208 0.000000
v -0.106277 0.065804 0.000000
v -0.194384 0.157210 0.000000
v -0.075329 0.099752 0.000000
v -0.148544 0.201084 0.000000
v -0.093135 0.232004 0.000000
v -0.125000 0.000000 0.000000
v -0.249130 -0.020833 0.000000
v -0.246351 0.042558 0.000000
v -0.045416 -1.616457 0.000000
v -0.084625 -1.591998 0.000000
v -0.043301 -1.525000 0.000000
v -0.112268 -1.554963 0.000000
v -0.050000 -1.500000 0.000000
v -0.124565 -1.510417 0.000000
v -0.043301 -1.475000 0.000000
v -0.025000 -1.456699 0.000000
v 0.000000 -1.450000 0.000000
v 0.025000 -1.456699 0.000000
v -0.124565 -1.510417 0.000000
v -0.249130 -0.020833 0.000000
v 0.249130 -0.020833 0.000000
v 0.124565 -1.510417 0.000000
vn 0.000000 -0.000000 1.000000
vn -0.000000 0.000000 -1.000000
vn 0.999040 0.043804 -0.000000
vn 0.955833 0.293909 -0.000000
vn 0.851052 0.525082 -0.000000
vn 0.691446 0.722428 -0.000000
vn 0.487298 0.873236 -0.000000
vn 0.251758 0.967790 -0.000000
vn -0.000000 1.000000 0.000000
vn -0.251758 0.967790 0.000000
vn -0.487298 0.873236 0.000000
vn -0.691446 0.722428 0.000000
vn -0.851052 0.525082 0.000000
vn -0.955833 0.293909 0.000000
vn -0.999040 0.043805 0.000000
vn -0.996522 -0.083333 0.000000
vn -0.963944 -0.266105 0.000000
vn -0.801382 -0.598152 0.000000
vn -0.529289 -0.848442 0.000000
vn -0.184854 -0.982766 0.000000
vn 0.184854 -0.982766 -0.000000
vn 0.529289 -0.848442 -0.000000
vn 0.801382 -0.598152 -0.000000
vn 0.963944 -0.266105 -0.000000
vn 0.996522 -0.083333 0.000000
vn 0.995734 -0.092268 -0.000000
vn 0.995734 0.092268 -0.000000
vn 0.932472 -0.361241 -0.000000
vn 0.739009 -0.673696 -0.000000
vn 0.445739 -0.895163 -0.000000
vn 0.092268 -0.995734 -0.000000
vn -0.273663 -0.961826 0.000000
vn -0.602635 -0.798017 0.000000
vn -0.850217 -0.526432 0.000000
vn -0.982973 -0.183750 0.000000
vn -0.982973 0.183749 0.000000
vn -0.982973 0.183750 0.000000
vn -0.850217 0.526432 0.000000
vn -0.602634 0.798017 0.000000
vn -0.273663 0.961826 0.000000
vn 0.092268 0.995734 -0.000000
vn 0.445739 0.895163 -0.000000
vn 0.739009 0.673696 -0.000000
vn 0.932472 0.361241 -0.000000
vn -0.965926 -0.258820 0.000000
vn -0.965926 0.258819 0.000000
vn -0.707109 0.707105 0.000000
vn -0.258819 0.965926 0.000000
vn 0.258819 0.965926 -0.000000
vn 0.707109 0.707105 -0.000000
vn 0.965926 0.258819 -0.000000
vn 0.965926 -0.258820 -0.000000
vn 0.707109 -0.707105 -0.000000
vn 0.258819 -0.965926 -0.000000
vn -0.258819 -0.965926 0.000000
vn -0.707109 -0.707105 0.000000
usemtl Material.001
s off
f 1//1 2//1 3//1
f 3//1 2//1 4//1
f 3//1 4//1 5//1
f 6//1 7//1 8//1
f 4//1 9//1 5//1
f 5//1 9//1 10//1
f 5//1 10//1 11//1
f 11//1 10//1 12//1
f 11//1 12//1 13//1
f 13//1 12//1 14//1
f 13//1 14//1 15//1
f 7//1 6//1 16//1
f 16//1 6//1 17//1
f 16//1 17//1 18//1
f 14//1 19//1 15//1
f 15//1 19//1 20//1
f 15//1 20//1 21//1
f 21//1 20//1 22//1
f 21//1 22//1 23//1
f 23//1 22//1 24//1
f 23//1 24//1 25//1
f 25//1 24//1 26//1
f 25//1 26//1 8//1
f 18//1 27//1 16//1
f 16//1 27//1 28//1
f 1//1 16//1 28//1
f 1//1 28//1 29//1
f 1//1 29//1 30//1
f 1//1 30//1 2//1
f 2//1 30//1 31//1
f 32//1 33//1 34//1
f 34//1 33//1 35//1
f 34//1 35//1 36//1
f 36//1 35//1 37//1
f 36//1 37//1 38//1
f 31//1 39//1 2//1
f 2//1 39//1 40//1
f 2//1 40//1 41//1
f 41//1 40//1 42//1
f 41//1 42//1 43//1
f 43//1 42//1 38//1
f 43//1 38//1 44//1
f 44//1 38//1 37//1
f 45//1 46//1 47//1
f 47//1 46//1 48//1
f 47//1 48//1 32//1
f 32//1 48//1 49//1
f 32//1 49//1 33//1
f 8//1 26//1 6//1
f 6//1 26//1 50//1
f 6//1 50//1 51//1
f 51//1 50//1 52//1
f 51//1 52//1 45//1
f 45//1 52//1 53//1
f 45//1 53//1 46//1
f 54//2 55//2 56//2
f 56//2 55//2 57//2
f 56//2 57//2 58//2
f 59//2 60//2 61//2
f 61//2 60//2 62//2
f 61//2 62//2 63//2
f 57//2 64//2 58//2
f 58//2 64//2 65//2
f 58//2 65//2 66//2
f 66//2 65//2 67//2
f 63//2 54//2 61//2
f 61//2 54//2 56//2
f 61//2 56//2 68//2
f 68//2 56//2 69//2
f 68//2 69//2 70//2
f 70//2 69//2 71//2
f 70//2 71//2 72//2
f 72//2 71//2 73//2
f 72//2 73//2 74//2
f 74//2 73//2 75//2
f 74//2 75//2 76//2
f 77//2 78//2 79//2
f 79//2 78//2 80//2
f 79//2 80//2 67//2
f 67//2 80//2 81//2
f 67//2 81//2 66//2
f 82//2 83//2 84//2
f 84//2 83//2 85//2
f 84//2 85//2 77//2
f 77//2 85//2 86//2
f 77//2 86//2 78//2
f 87//2 88//2 89//2
f 89//2 88//2 90//2
f 89//2 90//2 91//2
f 91//2 90//2 92//2
f 91//2 92//2 82//2
f 82//2 92//2 93//2
f 82//2 93//2 83//2
f 94//2 95//2 87//2
f 87//2 95//2 96//2
f 87//2 96//2 88//2
f 75//2 97//2 76//2
f 76//2 97//2 98//2
f 76//2 98//2 99//2
f 99//2 98//2 100//2
f 99//2 100//2 101//2
f 101//2 100//2 102//2
f 101//2 102//2 103//2
f 103//2 102//2 95//2
f 103//2 95//2 104//2
f 104//2 95//2 94//2
f 104//2 94//2 105//2
f 105//2 94//2 59//2
f 105//2 59//2 106//2
f 106//2 59//2 61//2
f 26//3 58//3 66//3
f 26//3 66//3 50//3
f 50//4 66//4 81//4
f 50//4 81//4 52//4
f 52//5 81//5 80//5
f 52//5 80//5 53//5
f 53//6 80//6 78//6
f 53//6 78//6 46//6
f 46//7 78//7 86//7
f 46//7 86//7 48//7
f 48//8 86//8 85//8
f 48//8 85//8 49//8
f 49//9 85//9 83//9
f 49//9 83//9 33//9
f 33//10 83//10 93//10
f 33//10 93//10 35//10
f 35//11 93//11 92//11
f 35//11 92//11 37//11
f 37//12 92//12 90//12
f 37//12 90//12 44//12
f 44//13 90//13 88//13
f 44//13 88//13 43//13
f 43//14 88//14 96//14
f 43//14 96//14 41//14
f 41//15 96//15 95//15
f 41//15 95//15 2//15
f 4//16 2//16 107//16
f 107//16 2//16 108//16
f 4//17 102//17 100//17
f 4//17 100//17 9//17
f 9//18 100//18 98//18
f 9//18 98//18 10//18
f 10//19 98//19 97//19
f 10//19 97//19 12//19
f 12//20 97//20 75//20
f 12//20 75//20 14//20
f 14//21 75//21 73//21
f 14//21 73//21 19//21
f 19//22 73//22 71//22
f 19//22 71//22 20//22
f 20//23 71//23 69//23
f 20//23 69//23 22//23
f 22//24 69//24 56//24
f 22//24 56//24 24//24
f 26//25 24//25 109//25
f 109//25 24//25 110//25
f 42//26 40//26 94//26
f 94//27 40//27 59//27
f 94//26 87//26 42//26
f 42//28 87//28 89//28
f 42//28 89//28 38//28
f 38//29 89//29 91//29
f 38//29 91//29 36//29
f 36//30 91//30 82//30
f 36//30 82//30 34//30
f 34//31 82//31 84//31
f 34//31 84//31 32//31
f 32//32 84//32 77//32
f 32//32 77//32 47//32
f 47//33 77//33 79//33
f 47//33 79//33 45//33
f 45//34 79//34 67//34
f 45//34 67//34 51//34
f 51//35 67//35 65//35
f 51//35 65//35 6//35
f 6//36 65//36 64//36
f 6//37 64//37 17//37
f 17//38 64//38 57//38
f 17//38 57//38 18//38
f 18//39 57//39 55//39
f 18//39 55//39 27//39
f 27//40 55//40 54//40
f 27//40 54//40 28//40
f 28//41 54//41 63//41
f 28//41 63//41 29//41
f 29//42 63//42 62//42
f 29//42 62//42 30//42
f 30//43 62//43 60//43
f 30//43 60//43 31//43
f 31//44 60//44 59//44
f 31//44 59//44 39//44
f 39//27 59//27 40//27
f 25//45 68//45 23//45
f 23//46 68//46 70//46
f 23//46 70//46 21//46
f 21//47 70//47 72//47
f 21//47 72//47 15//47
f 15//48 72//48 74//48
f 15//48 74//48 13//48
f 13//49 74//49 76//49
f 13//49 76//49 11//49
f 11//50 76//50 99//50
f 11//50 99//50 5//50
f 5//51 99//51 101//51
f 5//51 101//51 3//51
f 3//52 101//52 103//52
f 1//52 3//52 103//52
f 1//53 103//53 104//53
f 1//53 104//53 16//53
f 16//54 104//54 105//54
f 16//54 105//54 7//54
f 7//55 105//55 106//55
f 7//55 106//55 8//55
f 8//56 106//56 61//56
f 8//56 61//56 25//56
f 25//45 61//45 68//45
