# Blender v2.59 (sub 0) OBJ File: ''
# www.blender.org
mtllib arm3.mtl
v 0.046624 0.018062 0.700000
v 0.050000 0.000000 0.700000
v 0.049149 0.009187 -0.000000
v 0.045830 0.017755 -0.000000
v 0.042511 0.026322 -0.000000
v 0.036951 0.033685 0.700000
v 0.036321 0.033111 -0.000000
v 0.030132 0.039901 -0.000000
v 0.022287 0.044758 0.700000
v 0.021907 0.043996 -0.000000
v 0.013683 0.048091 -0.000000
v 0.004613 0.049787 0.700000
v 0.004535 0.048939 -0.000000
v -0.004613 0.049787 0.000000
v -0.013683 0.048091 0.700000
v -0.013450 0.047272 0.000000
v -0.022287 0.044758 0.000000
v -0.030132 0.039901 0.700000
v -0.029619 0.039221 0.000000
v -0.036950 0.033685 0.000000
v -0.042511 0.026322 0.700000
v -0.041787 0.025873 0.000000
v -0.046624 0.018062 0.000000
v -0.049149 0.009187 0.700000
v -0.048312 0.009031 0.000000
v -0.050000 0.000000 0.700000
v -0.050000 0.000000 0.000000
v -0.049149 -0.009187 0.700000
v -0.048312 -0.009031 0.000000
v -0.046624 -0.018062 0.000000
v -0.042511 -0.026322 0.700000
v -0.041787 -0.025873 0.000000
v -0.036950 -0.033685 0.000000
v -0.030132 -0.039901 0.700000
v -0.029619 -0.039221 0.000000
v -0.022287 -0.044758 0.000000
v -0.013683 -0.048091 0.700000
v -0.013450 -0.047272 0.000000
v -0.004613 -0.049787 0.000000
v 0.004613 -0.049787 0.700000
v 0.004535 -0.048939 -0.000000
v 0.013683 -0.048091 -0.000000
v 0.022287 -0.044758 0.700000
v 0.021907 -0.043996 -0.000000
v 0.030132 -0.039901 -0.000000
v 0.036951 -0.033685 0.700000
v 0.036321 -0.033111 -0.000000
v 0.042511 -0.026322 -0.000000
v 0.046624 -0.018062 0.700000
v 0.045830 -0.017755 -0.000000
v 0.049149 -0.009187 -0.000000
v 0.049149 0.000000 -0.000000
v 0.000000 0.000000 -0.050000
vn 0.982972 0.183749 0.001216
vn 0.932472 0.361241 -0.001216
vn 0.850217 0.526432 0.001216
vn 0.739008 0.673695 -0.001216
vn 0.602634 0.798017 0.001216
vn 0.445738 0.895163 -0.001216
vn 0.273663 0.961825 0.001216
vn 0.092268 0.995733 -0.001216
vn -0.092268 0.995733 0.001216
vn -0.273663 0.961825 -0.001216
vn -0.273662 0.961825 -0.001216
vn -0.445738 0.895163 0.001216
vn -0.602634 0.798016 -0.001216
vn -0.602634 0.798017 -0.001216
vn -0.739008 0.673695 0.001216
vn -0.850217 0.526432 -0.001216
vn -0.850216 0.526432 -0.001216
vn -0.932472 0.361241 0.001216
vn -0.982972 0.183750 -0.001216
vn -0.995733 0.092268 -0.001211
vn -0.982973 0.183748 0.000000
vn -0.995734 -0.092268 0.000000
vn -0.982973 -0.183748 -0.001216
vn -0.982972 -0.183750 -0.001216
vn -0.932472 -0.361241 0.001216
vn -0.850216 -0.526432 -0.001216
vn -0.739008 -0.673695 0.001216
vn -0.602635 -0.798016 -0.001216
vn -0.602634 -0.798016 -0.001216
vn -0.445738 -0.895163 0.001216
vn -0.273663 -0.961825 -0.001216
vn -0.273662 -0.961825 -0.001216
vn -0.092268 -0.995733 0.001216
vn 0.092268 -0.995733 -0.001216
vn 0.273663 -0.961825 0.001216
vn 0.445738 -0.895163 -0.001216
vn 0.602635 -0.798016 0.001216
vn 0.739008 -0.673695 -0.001216
vn 0.850216 -0.526432 0.001216
vn 0.932472 -0.361241 -0.001216
vn 0.932471 -0.361241 -0.001216
vn 0.982972 -0.183749 0.001216
vn 0.999999 0.000000 -0.001216
vn 0.000000 0.000000 1.000000
vn -0.701010 0.131040 -0.701009
vn -0.701009 0.131042 -0.701009
vn -0.701010 -0.131040 -0.701009
vn -0.429770 0.569108 -0.701009
vn -0.606334 0.375426 -0.701009
vn -0.195163 0.685928 -0.701009
vn 0.317879 0.638388 -0.701009
vn 0.065801 0.710110 -0.701009
vn 0.527026 0.480448 -0.701009
vn 0.527026 0.480447 -0.701009
vn 0.713152 0.000000 -0.701009
vn 0.664994 0.257620 -0.701009
vn 0.664994 -0.257620 -0.701009
vn 0.664995 -0.257620 -0.701009
vn 0.317879 -0.638388 -0.701009
vn 0.527026 -0.480448 -0.701009
vn 0.065801 -0.710110 -0.701009
vn -0.429770 -0.569107 -0.701009
vn -0.195163 -0.685928 -0.701009
vn -0.606334 -0.375427 -0.701009
vn -0.606334 -0.375426 -0.701009
vn -0.429771 -0.569107 -0.701009
vn -0.701009 -0.131042 -0.701009
usemtl Material.001
s off
f 1//1 2//1 3//1
f 1//2 3//2 4//2
f 1//2 4//2 5//2
f 1//3 5//3 6//3
f 5//4 7//4 6//4
f 6//4 7//4 8//4
f 6//5 8//5 9//5
f 8//6 10//6 9//6
f 9//6 10//6 11//6
f 9//7 11//7 12//7
f 11//8 13//8 12//8
f 12//8 13//8 14//8
f 12//9 14//9 15//9
f 14//10 16//10 15//10
f 15//11 16//11 17//11
f 15//12 17//12 18//12
f 17//13 19//13 18//13
f 18//14 19//14 20//14
f 18//15 20//15 21//15
f 20//16 22//16 21//16
f 21//17 22//17 23//17
f 21//18 23//18 24//18
f 24//19 23//19 25//19
f 24//20 25//20 26//20
f 26//21 25//21 27//21
f 26//22 27//22 28//22
f 27//23 29//23 28//23
f 28//24 29//24 30//24
f 28//25 30//25 31//25
f 30//26 32//26 31//26
f 31//26 32//26 33//26
f 31//27 33//27 34//27
f 33//28 35//28 34//28
f 34//29 35//29 36//29
f 34//30 36//30 37//30
f 36//31 38//31 37//31
f 37//32 38//32 39//32
f 37//33 39//33 40//33
f 39//34 41//34 40//34
f 40//34 41//34 42//34
f 40//35 42//35 43//35
f 42//36 44//36 43//36
f 43//36 44//36 45//36
f 43//37 45//37 46//37
f 45//38 47//38 46//38
f 46//38 47//38 48//38
f 46//39 48//39 49//39
f 48//40 50//40 49//40
f 49//41 50//41 51//41
f 49//42 51//42 2//42
f 2//43 51//43 52//43
f 2//43 52//43 3//43
f 26//44 2//44 24//44
f 1//44 24//44 2//44
f 24//44 1//44 21//44
f 21//44 1//44 6//44
f 21//44 6//44 18//44
f 18//44 6//44 9//44
f 18//44 9//44 15//44
f 15//44 9//44 12//44
f 34//44 37//44 40//44
f 26//44 28//44 2//44
f 2//44 28//44 31//44
f 2//44 31//44 34//44
f 40//44 43//44 46//44
f 34//44 40//44 2//44
f 2//44 40//44 46//44
f 2//44 46//44 49//44
f 53//45 27//45 25//45
f 23//46 53//46 25//46
f 29//47 27//47 53//47
f 53//48 20//48 19//48
f 22//49 20//49 53//49
f 23//49 22//49 53//49
f 53//50 17//50 16//50
f 14//50 53//50 16//50
f 19//48 17//48 53//48
f 53//51 11//51 10//51
f 13//52 11//52 53//52
f 14//52 13//52 53//52
f 53//53 8//53 7//53
f 5//54 53//54 7//54
f 10//51 8//51 53//51
f 53//55 3//55 52//55
f 4//56 3//56 53//56
f 5//56 4//56 53//56
f 53//57 51//57 50//57
f 48//58 53//58 50//58
f 52//55 51//55 53//55
f 53//59 45//59 44//59
f 47//60 45//60 53//60
f 48//60 47//60 53//60
f 53//61 42//61 41//61
f 39//61 53//61 41//61
f 44//59 42//59 53//59
f 53//62 36//62 35//62
f 38//63 36//63 53//63
f 39//63 38//63 53//63
f 53//64 33//64 32//64
f 30//65 53//65 32//65
f 35//66 33//66 53//66
f 30//67 29//67 53//67
v 0.046624 0.018062 0.700000
v 0.050000 0.000000 0.700000
v 0.049149 0.009187 -0.000000
v 0.045830 0.017755 -0.000000
v 0.042511 0.026322 -0.000000
v 0.036951 0.033685 0.700000
v 0.036321 0.033111 -0.000000
v 0.030132 0.039901 -0.000000
v 0.022287 0.044758 0.700000
v 0.021907 0.043996 -0.000000
v 0.013683 0.048091 -0.000000
v 0.004613 0.049787 0.700000
v 0.004535 0.048939 -0.000000
v -0.004613 0.049787 0.000000
v -0.013683 0.048091 0.700000
v -0.013450 0.047272 0.000000
v -0.022287 0.044758 0.000000
v -0.030132 0.039901 0.700000
v -0.029619 0.039221 0.000000
v -0.036950 0.033685 0.000000
v -0.042511 0.026322 0.700000
v -0.041787 0.025873 0.000000
v -0.046624 0.018062 0.000000
v -0.049149 0.009187 0.700000
v -0.048312 0.009031 0.000000
v -0.050000 0.000000 0.700000
v -0.050000 0.000000 0.000000
v -0.049149 -0.009187 0.700000
v -0.048312 -0.009031 0.000000
v -0.046624 -0.018062 0.000000
v -0.042511 -0.026322 0.700000
v -0.041787 -0.025873 0.000000
v -0.036950 -0.033685 0.000000
v -0.030132 -0.039901 0.700000
v -0.029619 -0.039221 0.000000
v -0.022287 -0.044758 0.000000
v -0.013683 -0.048091 0.700000
v -0.013450 -0.047272 0.000000
v -0.004613 -0.049787 0.000000
v 0.004613 -0.049787 0.700000
v 0.004535 -0.048939 -0.000000
v 0.013683 -0.048091 -0.000000
v 0.022287 -0.044758 0.700000
v 0.021907 -0.043996 -0.000000
v 0.030132 -0.039901 -0.000000
v 0.036951 -0.033685 0.700000
v 0.036321 -0.033111 -0.000000
v 0.042511 -0.026322 -0.000000
v 0.046624 -0.018062 0.700000
v 0.045830 -0.017755 -0.000000
v 0.049149 -0.009187 -0.000000
v 0.049149 0.000000 -0.000000
v 0.000000 0.000000 -0.050000
usemtl 
s off
f 54//1 55//1 56//1
f 54//2 56//2 57//2
f 54//2 57//2 58//2
f 54//3 58//3 59//3
f 58//4 60//4 59//4
f 59//4 60//4 61//4
f 59//5 61//5 62//5
f 61//6 63//6 62//6
f 62//6 63//6 64//6
f 62//7 64//7 65//7
f 64//8 66//8 65//8
f 65//8 66//8 67//8
f 65//9 67//9 68//9
f 67//10 69//10 68//10
f 68//11 69//11 70//11
f 68//12 70//12 71//12
f 70//13 72//13 71//13
f 71//14 72//14 73//14
f 71//15 73//15 74//15
f 73//16 75//16 74//16
f 74//17 75//17 76//17
f 74//18 76//18 77//18
f 77//19 76//19 78//19
f 77//20 78//20 79//20
f 79//21 78//21 80//21
f 79//22 80//22 81//22
f 80//23 82//23 81//23
f 81//24 82//24 83//24
f 81//25 83//25 84//25
f 83//26 85//26 84//26
f 84//26 85//26 86//26
f 84//27 86//27 87//27
f 86//28 88//28 87//28
f 87//29 88//29 89//29
f 87//30 89//30 90//30
f 89//31 91//31 90//31
f 90//32 91//32 92//32
f 90//33 92//33 93//33
f 92//34 94//34 93//34
f 93//34 94//34 95//34
f 93//35 95//35 96//35
f 95//36 97//36 96//36
f 96//36 97//36 98//36
f 96//37 98//37 99//37
f 98//38 100//38 99//38
f 99//38 100//38 101//38
f 99//39 101//39 102//39
f 101//40 103//40 102//40
f 102//41 103//41 104//41
f 102//42 104//42 55//42
f 55//43 104//43 105//43
f 55//43 105//43 56//43
f 79//44 55//44 77//44
f 54//44 77//44 55//44
f 77//44 54//44 74//44
f 74//44 54//44 59//44
f 74//44 59//44 71//44
f 71//44 59//44 62//44
f 71//44 62//44 68//44
f 68//44 62//44 65//44
f 87//44 90//44 93//44
f 79//44 81//44 55//44
f 55//44 81//44 84//44
f 55//44 84//44 87//44
f 93//44 96//44 99//44
f 87//44 93//44 55//44
f 55//44 93//44 99//44
f 55//44 99//44 102//44
f 106//45 80//45 78//45
f 76//46 106//46 78//46
f 82//47 80//47 106//47
f 106//48 73//48 72//48
f 75//49 73//49 106//49
f 76//49 75//49 106//49
f 106//50 70//50 69//50
f 67//50 106//50 69//50
f 72//48 70//48 106//48
f 106//51 64//51 63//51
f 66//52 64//52 106//52
f 67//52 66//52 106//52
f 106//53 61//53 60//53
f 58//54 106//54 60//54
f 63//51 61//51 106//51
f 106//55 56//55 105//55
f 57//56 56//56 106//56
f 58//56 57//56 106//56
f 106//57 104//57 103//57
f 101//58 106//58 103//58
f 105//55 104//55 106//55
f 106//59 98//59 97//59
f 100//60 98//60 106//60
f 101//60 100//60 106//60
f 106//61 95//61 94//61
f 92//61 106//61 94//61
f 97//59 95//59 106//59
f 106//62 89//62 88//62
f 91//63 89//63 106//63
f 92//63 91//63 106//63
f 106//64 86//64 85//64
f 83//65 106//65 85//65
f 88//66 86//66 106//66
f 83//67 82//67 106//67
